<svg width="118" height="79" viewBox="0 0 118 79" fill="none" xmlns="http://www.w3.org/2000/svg">
<path d="M58.8979 7.04564C70.8235 2.42953 83.2358 0 96.3783 0C109.521 0 122.177 2.42953 134.102 7.04564C146.028 11.9047 156.25 18.2215 165.011 26.2389C173.53 34.2564 180.588 43.9745 185.699 55.1503C190.81 66.3262 193.243 77.9879 193.243 90.1356C193.243 102.283 190.81 113.945 185.699 125.121C180.588 136.297 173.773 146.015 165.011 154.032C156.493 162.05 146.028 168.609 134.102 173.226C122.177 178.085 109.764 180.271 96.6217 180.271C83.4792 180.271 71.0668 177.842 59.1412 173.226C47.2156 168.366 36.9937 162.05 28.4754 154.032C19.9571 146.015 13.1425 136.297 8.03153 125.121C2.4338 114.431 0 102.769 0 90.3785C0 77.9879 2.4338 66.5691 7.54477 55.3933C12.6557 44.2174 19.4704 34.4993 27.9887 26.4819C36.7503 18.4644 46.9723 11.9047 58.8979 7.04564ZM68.633 152.332C77.6381 155.976 86.8865 157.677 96.6217 157.677C106.357 157.677 115.605 155.976 124.61 152.332C133.372 148.687 141.16 144.071 147.488 137.997C153.816 131.923 158.927 124.878 162.821 116.617C166.715 108.357 168.419 99.6107 168.419 90.3785C168.419 81.1463 166.472 72.643 162.821 64.1396C158.927 55.8792 153.816 48.5906 147.488 42.7597C141.16 36.6859 133.372 32.0698 124.61 28.4255C115.849 24.7812 106.357 23.0805 96.6217 23.0805C86.8865 23.0805 77.6381 24.7812 68.633 28.4255C59.8714 32.0698 52.0832 36.6859 45.7554 42.7597C39.4275 48.8336 34.0731 55.8792 30.4224 64.1396C26.5284 72.4 24.8247 81.1463 24.8247 90.3785C24.8247 99.6107 26.7718 108.114 30.4224 116.617C34.3165 124.878 39.4275 132.166 45.7554 137.997C52.0832 144.071 59.628 148.93 68.633 152.332Z" fill="#25DF7E"/>
</svg>
