<svg width="24" height="24" viewBox="0 0 24 24" fill="none" xmlns="http://www.w3.org/2000/svg">
<g clip-path="url(#clip0_46_182)">
<path d="M22.9997 16.0003C22.7345 16.0003 22.4802 16.1057 22.2926 16.2932C22.1051 16.4807 21.9997 16.7351 21.9997 17.0003V19.0003C21.9997 19.7959 21.6837 20.559 21.1211 21.1216C20.5585 21.6842 19.7954 22.0003 18.9998 22.0003H16.9998C16.7345 22.0003 16.4802 22.1056 16.2926 22.2932C16.1051 22.4807 15.9998 22.7351 15.9998 23.0003C15.9998 23.2655 16.1051 23.5199 16.2926 23.7074C16.4802 23.8949 16.7345 24.0003 16.9998 24.0003H18.9998C20.3253 23.9987 21.5962 23.4714 22.5335 22.5341C23.4709 21.5967 23.9982 20.3259 23.9997 19.0003V17.0003C23.9997 16.7351 23.8944 16.4807 23.7068 16.2932C23.5193 16.1057 23.265 16.0003 22.9997 16.0003Z" fill="white"/>
<path d="M1 8C1.26522 8 1.51957 7.89464 1.70711 7.70711C1.89464 7.51957 2 7.26522 2 7V5C2 4.20435 2.31607 3.44129 2.87868 2.87868C3.44129 2.31607 4.20435 2 5 2H7C7.26522 2 7.51957 1.89464 7.70711 1.70711C7.89464 1.51957 8 1.26522 8 1C8 0.734784 7.89464 0.48043 7.70711 0.292893C7.51957 0.105357 7.26522 0 7 0L5 0C3.67441 0.00158786 2.40356 0.528882 1.46622 1.46622C0.528882 2.40356 0.00158786 3.67441 0 5L0 7C0 7.26522 0.105357 7.51957 0.292893 7.70711C0.48043 7.89464 0.734784 8 1 8Z" fill="white"/>
<path d="M7 22.0003H5C4.20435 22.0003 3.44129 21.6842 2.87868 21.1216C2.31607 20.559 2 19.7959 2 19.0003V17.0003C2 16.7351 1.89464 16.4807 1.70711 16.2932C1.51957 16.1057 1.26522 16.0003 1 16.0003C0.734784 16.0003 0.48043 16.1057 0.292893 16.2932C0.105357 16.4807 0 16.7351 0 17.0003L0 19.0003C0.00158786 20.3259 0.528882 21.5967 1.46622 22.5341C2.40356 23.4714 3.67441 23.9987 5 24.0003H7C7.26522 24.0003 7.51957 23.8949 7.70711 23.7074C7.89464 23.5199 8 23.2655 8 23.0003C8 22.7351 7.89464 22.4807 7.70711 22.2932C7.51957 22.1056 7.26522 22.0003 7 22.0003Z" fill="white"/>
<path d="M18.9998 0H16.9998C16.7345 0 16.4802 0.105357 16.2926 0.292893C16.1051 0.48043 15.9998 0.734784 15.9998 1C15.9998 1.26522 16.1051 1.51957 16.2926 1.70711C16.4802 1.89464 16.7345 2 16.9998 2H18.9998C19.7954 2 20.5585 2.31607 21.1211 2.87868C21.6837 3.44129 21.9997 4.20435 21.9997 5V7C21.9997 7.26522 22.1051 7.51957 22.2926 7.70711C22.4802 7.89464 22.7345 8 22.9997 8C23.265 8 23.5193 7.89464 23.7068 7.70711C23.8944 7.51957 23.9997 7.26522 23.9997 7V5C23.9982 3.67441 23.4709 2.40356 22.5335 1.46622C21.5962 0.528882 20.3253 0.00158786 18.9998 0V0Z" fill="white"/>
<path d="M12.0002 11C14.2094 11 16.0002 9.20914 16.0002 7C16.0002 4.79086 14.2094 3 12.0002 3C9.7911 3 8.00024 4.79086 8.00024 7C8.00024 9.20914 9.7911 11 12.0002 11Z" fill="white"/>
<path d="M11.0002 13.0003C9.40943 13.0019 7.88423 13.6345 6.75936 14.7594C5.63448 15.8843 5.00183 17.4095 5.00024 19.0003C5.00024 19.2655 5.1056 19.5199 5.29314 19.7074C5.48067 19.8949 5.73503 20.0003 6.00024 20.0003H18.0002C18.2655 20.0003 18.5198 19.8949 18.7074 19.7074C18.8949 19.5199 19.0002 19.2655 19.0002 19.0003C18.9987 17.4095 18.366 15.8843 17.2411 14.7594C16.1163 13.6345 14.5911 13.0019 13.0002 13.0003H11.0002Z" fill="white"/>
</g>
<defs>
<clipPath id="clip0_46_182">
<rect width="24" height="24" fill="white"/>
</clipPath>
</defs>
</svg>
