<svg width="28" height="28" viewBox="0 0 28 28" fill="none" xmlns="http://www.w3.org/2000/svg">
<path d="M11.3719 0C9.91247 0 8.7504 1.18247 8.7504 2.62158V11.375H18.3718C19.1011 11.375 19.8692 11.7096 20.3354 12.2346C20.8016 12.7596 20.9933 13.3893 20.9933 13.9966C20.9933 14.6038 20.8016 15.2353 20.3354 15.7603C19.8692 16.2852 19.1011 16.6267 18.3718 16.6267H8.7504V25.3784C8.7504 26.8345 9.93297 28 11.3719 28H25.3785C26.8174 28 28 26.8346 28 25.3784V2.62158C28 1.18247 26.8345 0 25.3785 0H11.3719ZM4.62841 9.00976L0.255211 13.383C-0.0850703 13.7233 -0.0850701 14.2766 0.255211 14.6169L4.62841 18.9902C5.45547 19.8174 6.69617 18.5766 5.86911 17.7495L2.98953 14.875H18.3786C19.544 14.875 19.544 13.125 18.3786 13.125H2.99466L5.86911 10.2505C6.66751 9.36054 5.45902 8.21435 4.62841 9.00976Z" fill="white" fill-opacity="0.5"/>
</svg>
