<svg width="32" height="32" viewBox="0 0 32 32" fill="none" xmlns="http://www.w3.org/2000/svg">
<path d="M26.5903 14.3879L24.7133 7.01944C25.09 6.64596 25.3315 5.97082 25.3315 5.16667C25.3315 3.93167 24.7621 3 24.0068 3H8.11005C7.35485 3 6.78533 3.93167 6.78533 5.16667C6.78533 6.40167 7.35485 7.33333 8.11005 7.33333H8.20687L6.40966 14.3878C6.36592 14.5597 6.34379 14.7361 6.34375 14.9133V28.5667C6.34375 28.6816 6.39027 28.7918 6.47308 28.8731C6.5559 28.9543 6.66821 29 6.78533 29H26.2147C26.3318 29 26.4441 28.9543 26.5269 28.8731C26.6097 28.7918 26.6562 28.6816 26.6562 28.5667V14.9134C26.6562 14.7362 26.6341 14.5598 26.5903 14.3879ZM25.7731 14.9134V27.5205L24.4484 26.2205V15.5667C24.4484 15.4517 24.4018 15.3415 24.319 15.2603C24.2362 15.179 24.1239 15.1333 24.0068 15.1333C23.8897 15.1333 23.7774 15.179 23.6946 15.2603C23.6117 15.3415 23.5652 15.4517 23.5652 15.5667V26.2205L22.2405 27.5205V14.9134C22.2405 14.8071 22.2538 14.7012 22.28 14.5981L24.0068 7.81991L25.7335 14.5979C25.7598 14.7011 25.7731 14.807 25.7731 14.9134ZM24.0068 27.0128L25.1486 28.1333H22.865L24.0068 27.0128ZM24.4484 5.16667C24.4484 6.0056 24.1167 6.46667 24.0068 6.46667C23.8969 6.46667 23.5652 6.0056 23.5652 5.16667C23.5652 4.32773 23.8969 3.86667 24.0068 3.86667C24.1167 3.86667 24.4484 4.32773 24.4484 5.16667ZM7.66848 5.16667C7.66848 4.28478 8.02268 3.86667 8.11005 3.86667H22.9328C22.7602 4.27883 22.6749 4.72113 22.6821 5.16667C22.6749 5.6122 22.7602 6.05451 22.9328 6.46667H8.11005C8.02268 6.46667 7.66848 6.04855 7.66848 5.16667ZM7.2269 14.9134C7.22691 14.8071 7.2402 14.7012 7.26648 14.5981L9.11718 7.33333H23.2205L21.4232 14.388C21.3795 14.5598 21.3574 14.7363 21.3573 14.9134V28.1333H7.2269V14.9134Z" fill="#0B032B"/>
<path d="M13.8506 14.2666C13.7335 14.2666 13.6212 14.3123 13.5384 14.3936C13.4556 14.4748 13.4091 14.585 13.4091 14.7V16H12.5259V14.7C12.5259 14.585 12.4794 14.4748 12.3966 14.3936C12.3138 14.3123 12.2015 14.2666 12.0843 14.2666C11.9672 14.2666 11.8549 14.3123 11.7721 14.3936C11.6893 14.4748 11.6428 14.585 11.6428 14.7V16H10.7596V14.7C10.7596 14.585 10.7131 14.4748 10.6303 14.3936C10.5475 14.3123 10.4352 14.2666 10.318 14.2666C10.2009 14.2666 10.0886 14.3123 10.0058 14.3936C9.92299 14.4748 9.87646 14.585 9.87646 14.7V16.4333H9.87729C9.87699 16.5005 9.89268 16.5669 9.92311 16.6271L10.7541 18.2579L10.3864 25.0117C10.3741 25.1894 10.3991 25.3678 10.46 25.5356C10.5208 25.7035 10.6162 25.8573 10.7401 25.9874C10.864 26.1176 11.0139 26.2214 11.1804 26.2924C11.347 26.3634 11.5266 26.4 11.7081 26.4H12.4606C12.6421 26.4 12.8217 26.3634 12.9882 26.2924C13.1548 26.2214 13.3047 26.1176 13.4286 25.9874C13.5525 25.8573 13.6479 25.7035 13.7087 25.5356C13.7696 25.3678 13.7946 25.1894 13.7823 25.0117L13.4146 18.2579L14.2455 16.6271C14.2759 16.5669 14.2916 16.5005 14.2913 16.4333H14.2922V14.7C14.2922 14.585 14.2457 14.4748 14.1629 14.3936C14.0801 14.3123 13.9678 14.2666 13.8506 14.2666ZM13.1362 16.8666L12.6946 17.7333H11.4741L11.0325 16.8666H13.1362ZM12.7837 25.3953C12.7426 25.439 12.6926 25.4739 12.637 25.4977C12.5813 25.5214 12.5212 25.5336 12.4606 25.5333H11.7081C11.6475 25.5333 11.5875 25.521 11.5319 25.4973C11.4763 25.4736 11.4263 25.4388 11.3849 25.3953C11.3436 25.3517 11.3119 25.3003 11.2917 25.2442C11.2715 25.188 11.2633 25.1284 11.2677 25.0691L11.2681 25.0613L11.6198 18.6H12.5489L12.9005 25.0613L12.901 25.0691C12.9056 25.1285 12.8976 25.1881 12.8774 25.2443C12.8572 25.3005 12.8253 25.3519 12.7837 25.3953Z" fill="#0B032B"/>
<path d="M18.6096 24.9786L18.2665 19.8858V14.7C18.2665 14.585 18.22 14.4748 18.1372 14.3936C18.0544 14.3123 17.9421 14.2666 17.8249 14.2666C15.128 14.2666 14.7499 18.8076 14.7351 19.0008C14.7286 19.0865 14.7482 19.1723 14.7914 19.247C14.8347 19.3218 14.8996 19.3823 14.978 19.4208L15.6171 19.7344V19.8858L15.274 24.9786C15.2568 25.1587 15.2781 25.3404 15.3365 25.5121C15.395 25.6837 15.4893 25.8414 15.6135 25.9752C15.7376 26.109 15.8889 26.2159 16.0575 26.289C16.2262 26.3622 16.4085 26.4 16.5929 26.4H17.2906C17.475 26.4 17.6574 26.3623 17.8261 26.2891C17.9948 26.216 18.1461 26.1091 18.2703 25.9754C18.3944 25.8416 18.4888 25.6838 18.5473 25.5122C18.6057 25.3405 18.6271 25.1588 18.6098 24.9786H18.6096ZM16.054 16.9918C16.3933 16.0119 16.8392 15.4158 17.3835 15.2123V19.4666H16.5002C16.5002 19.3862 16.4774 19.3073 16.4343 19.2388C16.3912 19.1704 16.3295 19.1151 16.2561 19.0791L15.6473 18.7803C15.7239 18.1727 15.8601 17.5737 16.0539 16.9918H16.054ZM17.6182 25.3907C17.577 25.4359 17.5265 25.4719 17.47 25.4965C17.4135 25.5211 17.3524 25.5336 17.2906 25.5333H16.5929C16.5312 25.5333 16.4702 25.5206 16.4138 25.496C16.3574 25.4715 16.3069 25.4356 16.2655 25.3907C16.2241 25.3457 16.1927 25.2928 16.1734 25.2353C16.1542 25.1777 16.1474 25.1169 16.1536 25.0566C16.1541 25.0518 16.1545 25.0469 16.1548 25.0421L16.4719 20.3333H17.4116L17.7288 25.0423C17.7292 25.0472 17.7295 25.052 17.7301 25.0568C17.7365 25.1171 17.7299 25.178 17.7106 25.2356C17.6913 25.2931 17.6597 25.346 17.6181 25.3907H17.6182Z" fill="#0B032B"/>
</svg>
