<svg width="35" height="35" viewBox="0 0 35 35" fill="none" xmlns="http://www.w3.org/2000/svg">
<path d="M28.2351 24.7917C29.3231 25.4567 29.8959 26.2112 29.8959 26.9792C29.8959 27.7471 29.3231 28.5016 28.2351 29.1667C27.1472 29.8317 25.5823 30.384 23.6979 30.768C21.8135 31.152 19.6759 31.3542 17.5 31.3542C15.3241 31.3542 13.1865 31.152 11.3021 30.768C9.4177 30.384 7.85288 29.8317 6.76491 29.1667C5.67695 28.5016 5.10419 27.7471 5.10419 26.9792C5.10419 26.2112 5.67695 25.4567 6.76491 24.7917" stroke="black" stroke-linecap="round"/>
<path d="M28.4375 14.5833C28.4375 22.122 19.9434 27.1329 17.9261 28.2167C17.6565 28.3616 17.3435 28.3616 17.0739 28.2167C15.0566 27.1329 6.5625 22.122 6.5625 14.5833C6.5625 8.02084 11.8621 3.64584 17.5 3.64584C23.3333 3.64584 28.4375 8.02084 28.4375 14.5833Z" stroke="black"/>
<circle cx="17.5" cy="14.5833" r="5.33333" stroke="black"/>
</svg>
