<svg width="51" height="65" viewBox="0 0 51 65" fill="none" xmlns="http://www.w3.org/2000/svg">
<g clip-path="url(#clip0_1121_12689)">
<path d="M36.3702 3.64933C35.8382 3.83666 35.241 3.89217 34.8021 4.20384C33.1604 5.37517 31.5514 6.61241 29.9776 7.87003C29.6807 8.09887 29.4991 8.53563 29.3937 8.92214C29.3475 9.0838 29.5811 9.45411 29.7678 9.53841C30.3106 9.78111 30.8473 9.66715 31.3345 9.3127C32.5168 8.48836 33.6991 7.66403 34.9955 6.76432C35.0794 7.8017 35.1586 8.76569 35.2099 9.73716C35.2856 10.9111 35.3158 12.0823 35.3915 13.2562C35.4389 13.9899 35.703 14.3072 36.3022 14.3706C36.9645 14.4469 37.5149 14.1054 37.6088 13.4532C37.7232 12.7658 37.8199 12.0681 37.7698 11.3799C37.6401 9.28007 37.4648 7.17747 37.2895 5.07487C37.2659 4.70802 37.0955 4.35064 36.9882 4.00618C36.794 3.89403 36.5821 3.77168 36.3702 3.64933Z" fill="white"/>
<path d="M12.354 44.7163C13.0005 45.5134 13.5281 46.3124 14.2106 46.9655C16.4218 49.0898 19.1654 49.8026 22.1206 49.5781C26.6621 49.2568 30.1267 47.0895 32.3929 43.1236C33.5348 41.1457 34.0097 39.0182 32.7393 36.8955C31.9836 35.6351 30.9486 34.6138 29.7077 33.8267C27.304 32.3212 24.7771 31.8041 22.0282 32.8541C19.3349 33.8893 17.0967 35.5638 15.1096 37.6188C14.6903 38.0596 14.2711 38.5003 13.7152 38.9329C13.7963 38.3439 13.842 37.7346 13.9685 37.1484C14.4719 34.849 15.6064 32.8433 16.9351 30.9497C19.5749 27.1524 22.832 23.8763 26.0035 20.5037C28.6287 17.7105 31.2287 14.8792 33.3323 11.6435C33.5437 11.3181 33.7829 10.9853 33.9692 10.622C34.2574 10.082 34.1128 9.59825 33.649 9.25979C33.1925 8.94919 32.5954 9.0047 32.2345 9.38501C32.1177 9.5059 32.0286 9.61931 31.9294 9.75039C29.9223 12.9005 27.3081 15.5117 24.7543 18.1814C22.348 20.6772 19.9342 23.1451 17.6413 25.7299C15.3178 28.3677 13.3624 31.2651 12.2445 34.6696C11.5087 36.8819 11.2736 39.1244 11.5643 41.4349C11.6111 41.7209 11.5437 42.0823 11.3833 42.3193C8.84407 46.2688 6.77415 50.4658 4.70423 54.6627C4.68384 54.6981 4.66345 54.7334 4.64306 54.7687C4.32899 55.435 4.36011 55.8297 4.78667 56.0289C5.3749 56.2743 5.65491 55.8709 5.89961 55.4471C7.8286 52.2283 9.75758 49.0096 11.6587 45.7983C11.883 45.4098 12.1324 45.0593 12.354 44.7163ZM17.4267 46.6561C16.0398 45.7141 14.8724 44.3102 14.3649 42.416C14.3201 42.2489 14.3263 41.9935 14.4154 41.8801C16.5269 39.1199 18.8701 36.6112 22.1089 35.1612C24.3239 34.1796 26.5603 34.058 28.6481 35.4989C30.4031 36.7005 31.4862 38.2912 31.0765 40.5505C30.8329 41.8697 30.1199 42.9415 29.2303 43.9113C27.6191 45.6417 25.5936 46.6621 23.3374 47.2667C21.3977 47.7715 19.4677 47.8109 17.4267 46.6561Z" fill="white"/>
</g>
<defs>
<clipPath id="clip0_1121_12689">
<rect width="61.1538" height="22.1043" fill="white" transform="matrix(0.5 -0.866025 -0.866025 -0.5 19.9031 64.7564)"/>
</clipPath>
</defs>
</svg>
