<svg width="248" height="37" viewBox="0 0 248 37" fill="none" xmlns="http://www.w3.org/2000/svg">
<g clip-path="url(#clip0_1121_12650)">
<path d="M242.447 8.37081C241.121 7.28112 239.696 6.53815 238.123 6.04284C236.551 5.54752 235.077 5.3494 233.701 5.3494C231.686 5.3494 230.065 5.79518 228.836 6.63721C227.608 7.52878 226.969 8.56894 226.969 9.85676C226.969 10.996 227.362 12.0361 228.197 12.8782C229.033 13.7202 230.212 14.4137 231.735 14.8594L240.04 17.1379C242.398 17.8809 244.315 19.0696 245.789 20.7041C247.263 22.3387 247.951 24.419 247.951 26.9451C247.951 29.8675 246.722 32.2945 244.266 34.1767C241.809 36.0589 238.566 37.0495 234.487 37.0495C231.195 37.0495 228.296 36.3561 225.839 35.0683C223.382 33.7309 221.318 31.8983 219.697 29.5703L223.972 26.4498C225.495 28.4311 227.116 29.8179 228.934 30.6104C230.753 31.4029 232.571 31.7992 234.389 31.7992C236.944 31.7992 238.959 31.3039 240.482 30.3628C242.005 29.4217 242.742 28.2329 242.742 26.8461C242.742 25.7068 242.349 24.7657 241.612 23.9732C240.875 23.1807 239.696 22.5368 238.172 22.1406L230.458 19.8621C227.657 18.9705 225.495 17.6827 224.021 15.8996C222.547 14.1165 221.809 12.0857 221.809 9.80723C221.809 6.98393 222.891 4.60642 225.102 2.82329C227.313 0.990626 230.163 0.0990601 233.701 0.0990601C235.912 0.0990601 238.172 0.544843 240.531 1.38688C242.89 2.22891 245.052 3.51673 246.968 5.2008L242.447 8.37081Z" fill="#25DF7E"/>
<path d="M11.8914 1.48594C14.2992 0.495315 16.8052 0 19.4587 0C22.1121 0 24.6673 0.495315 27.0751 1.48594C29.4829 2.47657 31.5467 3.76439 33.3156 5.39893C35.0355 7.03347 36.4605 9.01473 37.4924 11.2932C38.5243 13.5716 39.0157 15.9491 39.0157 18.4257C39.0157 20.9023 38.5243 23.2798 37.4924 25.5582C36.4605 27.8367 35.0846 29.8179 33.3156 31.4525C31.5958 33.087 29.4829 34.4244 27.0751 35.3655C24.6673 36.3561 22.1613 36.8019 19.5078 36.8019C16.8544 36.8019 14.3483 36.3066 11.9406 35.3655C9.53279 34.3748 7.46899 33.087 5.74916 31.4525C4.02932 29.8179 2.65346 27.8367 1.62156 25.5582C0.491381 23.3293 0 20.9518 0 18.4257C0 15.8996 0.491381 13.5716 1.52328 11.2932C2.55518 9.01473 3.93105 7.03347 5.65088 5.39893C7.41985 3.76439 9.48365 2.42704 11.8914 1.48594ZM13.8569 31.0562C15.6751 31.7992 17.5423 32.1459 19.5078 32.1459C21.4734 32.1459 23.3406 31.7992 25.1587 31.0562C26.9277 30.3133 28.5001 29.3722 29.7777 28.1339C31.0553 26.8956 32.0872 25.4592 32.8734 23.7751C33.6596 22.091 34.0036 20.3079 34.0036 18.4257C34.0036 16.5435 33.6105 14.8099 32.8734 13.0763C32.0872 11.3922 31.0553 9.90629 29.7777 8.71754C28.5001 7.47925 26.9277 6.53815 25.1587 5.79518C23.3897 5.05221 21.4734 4.70549 19.5078 4.70549C17.5423 4.70549 15.6751 5.05221 13.8569 5.79518C12.088 6.53815 10.5156 7.47925 9.23796 8.71754C7.96037 9.95582 6.92847 11.3922 6.14226 13.0763C5.35605 14.7604 5.01209 16.5435 5.01209 18.4257C5.01209 20.3079 5.40519 22.0415 6.14226 23.7751C6.92847 25.4592 7.96037 26.9451 9.23796 28.1339C10.5156 29.3722 12.0388 30.3628 13.8569 31.0562Z" fill="white"/>
<path d="M67.0734 12.3829C67.0734 14.6613 66.4838 16.6921 65.2553 18.5743C64.0269 20.407 62.4053 21.7938 60.4398 22.7349L67.0734 35.6627H62.307L56.1648 23.7256C56.1156 23.7256 56.0665 23.7256 55.9682 23.7256C55.9191 23.7256 55.8208 23.7256 55.8208 23.7256H46.1897V35.6131H41.4233V18.921H55.8208C57.6389 18.921 59.1622 18.2771 60.3906 16.9893C61.6682 15.7015 62.307 14.166 62.307 12.3829C62.307 10.5502 61.6682 9.01472 60.3906 7.77644C59.1131 6.48862 57.5898 5.84471 55.8208 5.84471H41.4233V1.08969H55.8208C57.8355 1.08969 59.7027 1.58501 61.4717 2.57563C63.1915 3.56626 64.5674 4.95315 65.5501 6.68675C66.582 8.46988 67.0734 10.3521 67.0734 12.3829Z" fill="white"/>
<path d="M93.3623 5.3494C97.0967 8.91566 98.9149 13.2744 98.9149 18.3266C98.9149 23.3789 97.0476 27.7376 93.264 31.4525C89.4803 35.0683 84.9596 36.9009 79.6527 36.9009C75.9674 36.9009 72.5768 36.0589 69.5303 34.3748V2.27845C73.2648 0.693441 76.7044 -0.0495305 79.8984 9.42266e-07C85.2053 9.42266e-07 89.6769 1.78313 93.3623 5.3494ZM89.7752 28.0348C92.5269 25.4096 93.9028 22.1901 93.9028 18.3266C93.9028 14.5127 92.576 11.3427 89.8734 8.76707C87.1217 6.1419 83.7312 4.85408 79.751 4.85408C78.0312 4.85408 76.1639 5.15127 74.2475 5.74565V31.0562C76.0165 31.6011 77.6872 31.8983 79.2596 31.8983C83.4855 31.8983 86.9743 30.6104 89.7752 28.0348Z" fill="white"/>
<path d="M150.952 12.3829C150.952 14.6613 150.363 16.6921 149.134 18.5743C147.906 20.407 146.284 21.7938 144.319 22.7349L150.952 35.6627H146.186L140.044 23.676C139.995 23.676 139.945 23.676 139.847 23.676C139.798 23.676 139.7 23.676 139.7 23.676H130.02V35.5636H125.302V18.921H139.7C141.518 18.921 143.041 18.2771 144.27 16.9893C145.547 15.7015 146.137 14.166 146.137 12.3829C146.137 10.5502 145.498 9.01472 144.27 7.77644C142.992 6.48862 141.469 5.84471 139.7 5.84471H125.302V1.08969H139.7C141.714 1.08969 143.582 1.58501 145.351 2.57563C147.07 3.56626 148.446 4.95315 149.429 6.68675C150.461 8.46988 150.952 10.3521 150.952 12.3829Z" fill="white"/>
<path d="M168.888 1.08969C170.411 1.08969 171.885 1.38688 173.261 1.98126C174.637 2.57563 175.816 3.36814 176.848 4.4083C177.831 5.39893 178.617 6.58768 179.256 8.0241C179.845 9.41098 180.14 10.8969 180.14 12.4324C180.14 14.4632 179.649 16.3454 178.666 18.1285C177.683 19.8621 176.307 21.249 174.588 22.2396C172.868 23.2303 171 23.7751 168.937 23.7751H163.138V18.9705H168.888C170.706 18.9705 172.229 18.3266 173.457 17.0388C174.735 15.751 175.374 14.2155 175.374 12.4324C175.374 10.5997 174.735 9.06426 173.457 7.82597C172.18 6.53815 170.657 5.89424 168.888 5.89424H159.158V35.6627H154.441V1.08969H168.888Z" fill="#25DF7E"/>
<path d="M193.309 1.48594C195.717 0.495313 198.272 0.04953 200.877 0.04953C203.53 0.04953 206.036 0.544845 208.444 1.48594C210.852 2.47657 212.915 3.76439 214.684 5.39893C216.404 7.03347 217.829 9.01472 218.861 11.2932C219.893 13.5716 220.384 15.9491 220.384 18.4257C220.384 20.9023 219.893 23.2798 218.861 25.5582C217.829 27.8367 216.453 29.8179 214.684 31.4525C212.965 33.087 210.852 34.4244 208.444 35.3655C206.036 36.3561 203.53 36.8019 200.877 36.8019C198.223 36.8019 195.717 36.3066 193.309 35.3655C190.902 34.3748 188.838 33.087 187.118 31.4525C185.398 29.8179 184.022 27.8367 182.99 25.5582C181.958 23.2798 181.467 20.9023 181.467 18.4257C181.467 15.9491 181.958 13.5716 182.99 11.2932C184.022 9.01472 185.398 7.03347 187.118 5.39893C188.838 3.76439 190.902 2.42704 193.309 1.48594ZM195.275 31.0562C197.093 31.7992 198.96 32.1459 200.926 32.1459C202.891 32.1459 204.759 31.7992 206.577 31.0562C208.346 30.3133 209.918 29.3722 211.196 28.1339C212.473 26.8956 213.505 25.4592 214.291 23.7751C215.078 22.091 215.421 20.3079 215.421 18.4257C215.421 16.5435 215.028 14.8099 214.291 13.0763C213.505 11.3922 212.473 9.90629 211.196 8.71754C209.918 7.47925 208.346 6.53815 206.577 5.79518C204.808 5.05221 202.891 4.70549 200.926 4.70549C198.96 4.70549 197.093 5.05221 195.275 5.79518C193.506 6.53815 191.933 7.47925 190.656 8.71754C189.378 9.95582 188.297 11.3922 187.56 13.0763C186.774 14.7604 186.43 16.5435 186.43 18.4257C186.43 20.3079 186.823 22.0415 187.56 23.7751C188.346 25.4592 189.378 26.9451 190.656 28.1339C191.933 29.3722 193.506 30.3628 195.275 31.0562Z" fill="#25DF7E"/>
<path d="M101.667 18.2276C101.667 19.0696 101.617 19.9116 101.568 20.7537H121.617V15.9491H101.568C101.617 16.6921 101.667 17.4846 101.667 18.2276Z" fill="white"/>
<path d="M95.8684 35.7122H121.617V31.0067H98.7676C97.9813 32.6412 96.9986 34.2262 95.8684 35.7122Z" fill="white"/>
<path d="M96.0649 1.08969C97.1951 2.62517 98.1779 4.21017 98.9641 5.84471H121.617V1.08969H96.0649Z" fill="white"/>
</g>
<defs>
<clipPath id="clip0_1121_12650">
<rect width="248" height="37" fill="white"/>
</clipPath>
</defs>
</svg>
