<svg width="32" height="32" viewBox="0 0 32 32" fill="none" xmlns="http://www.w3.org/2000/svg">
<path d="M28.9635 17.4418C28.9635 17.4416 28.9635 17.4416 28.9634 17.4415L24.0545 5.36787C23.9503 5.11133 23.6535 4.9861 23.3916 5.08815C23.3914 5.08821 23.3912 5.08827 23.391 5.0884L3.47619 12.856C3.39498 12.8904 3.32454 12.9452 3.27204 13.015C3.10642 13.0993 3.00179 13.2661 3 13.4489V26.4474C3 26.7235 3.22853 26.9473 3.51039 26.9473H24.9467C25.2285 26.9473 25.457 26.7235 25.457 26.4474V19.3482L28.6786 18.0914C28.9404 17.9891 29.068 17.6982 28.9635 17.4418ZM24.4363 25.9475H4.02077V13.9489H24.4363V25.9475ZM11.5158 12.9515L20.0617 9.61587C20.8244 10.4012 21.8813 10.8475 22.9878 10.8517L23.8401 12.9515H11.5158ZM25.457 18.2744V13.4489C25.457 13.1728 25.2285 12.949 24.9467 12.949H24.9385L23.857 10.2883C23.845 10.2661 23.831 10.245 23.8151 10.2253C23.7604 9.98452 23.5328 9.82022 23.2818 9.84034C22.2522 9.93227 21.245 9.50745 20.6058 8.71148C20.4468 8.51919 20.1672 8.47138 19.951 8.59949C19.9267 8.6023 19.9027 8.60668 19.879 8.61249L9.44568 12.682C9.31942 12.7305 9.21843 12.8267 9.16548 12.949H5.99699L23.295 6.20227L27.8268 17.3485L25.457 18.2744Z" fill="white"/>
<path d="M5.40592 22.5723C6.39684 22.8592 7.17224 23.6178 7.46635 24.5881C7.53085 24.7999 7.72971 24.945 7.95531 24.9451C7.98178 24.9434 8.00807 24.9396 8.03391 24.9336C8.05681 24.9399 8.08022 24.9446 8.10383 24.9476H20.3531C20.3742 24.9449 20.395 24.9407 20.4154 24.9351C20.6704 24.9958 20.9274 24.8426 20.9895 24.5929C20.9896 24.5919 20.9899 24.591 20.9901 24.5901C21.2834 23.6188 22.059 22.8592 23.0505 22.5718C23.291 22.4998 23.4404 22.2651 23.4006 22.0219C23.4075 21.9977 23.4124 21.9729 23.4154 21.9479V17.9484C23.4125 17.9233 23.4073 17.8986 23.4001 17.8744C23.4401 17.6311 23.2907 17.3963 23.05 17.3245C22.0585 17.0372 21.2831 16.2772 20.9906 15.3057C20.9167 15.0685 20.6747 14.9218 20.4251 14.9627C20.4015 14.9563 20.3774 14.9516 20.3531 14.9487H8.10383C8.07812 14.9517 8.05266 14.9567 8.02778 14.9637C7.77954 14.925 7.54004 15.0713 7.46635 15.3067C7.17282 16.2778 6.39735 17.0372 5.40592 17.3245C5.16546 17.3964 5.01605 17.6312 5.05579 17.8744C5.04916 17.8987 5.04437 17.9234 5.0415 17.9484V21.9479C5.04444 21.9714 5.04922 21.9947 5.05579 22.0174C5.01394 22.2622 5.16368 22.4995 5.40592 22.5723ZM6.06228 18.1514C7.08714 17.7482 7.89942 16.9525 8.31105 15.9486H20.1454C20.5572 16.9525 21.3697 17.7482 22.3947 18.1514V21.7449C21.3701 22.1486 20.558 22.9441 20.1459 23.9477H8.31105C7.89897 22.9441 7.08682 22.1486 6.06228 21.7449V18.1514Z" fill="white"/>
<path d="M14.2286 22.9478C15.9199 22.9478 17.2909 21.6048 17.2909 19.9481C17.2909 18.2915 15.9199 16.9485 14.2286 16.9485C12.5373 16.9485 11.1663 18.2915 11.1663 19.9481C11.1679 21.6041 12.538 22.9462 14.2286 22.9478ZM14.2286 17.9484C15.3561 17.9484 16.2701 18.8437 16.2701 19.9481C16.2701 21.0526 15.3561 21.9479 14.2286 21.9479C13.1011 21.9479 12.187 21.0526 12.187 19.9481C12.187 18.8437 13.1011 17.9484 14.2286 17.9484Z" fill="white"/>
<path d="M8.61421 20.698C9.03701 20.698 9.37979 20.3622 9.37979 19.9481C9.37979 19.534 9.03701 19.1982 8.61421 19.1982C8.19142 19.1982 7.84863 19.534 7.84863 19.9481C7.84863 20.3623 8.19142 20.698 8.61421 20.698ZM8.61421 19.6981C8.75514 19.6981 8.86941 19.81 8.86941 19.9481C8.86941 20.0861 8.75514 20.1981 8.61421 20.1981C8.47328 20.1981 8.35902 20.0861 8.35902 19.9481C8.35902 19.81 8.47328 19.6981 8.61421 19.6981Z" fill="white"/>
<path d="M19.843 20.698C20.2658 20.698 20.6086 20.3622 20.6086 19.9481C20.6086 19.534 20.2658 19.1982 19.843 19.1982C19.4202 19.1982 19.0774 19.534 19.0774 19.9481C19.0774 20.3623 19.4202 20.698 19.843 20.698ZM19.843 19.6981C19.9839 19.6981 20.0982 19.81 20.0982 19.9481C20.0982 20.0861 19.9839 20.1981 19.843 20.1981C19.702 20.1981 19.5878 20.0861 19.5878 19.9481C19.5878 19.81 19.702 19.6981 19.843 19.6981Z" fill="white"/>
</svg>
