<svg width="23" height="23" viewBox="0 0 23 23" fill="none" xmlns="http://www.w3.org/2000/svg">
<path d="M20.125 0.983154H2.625C1.92881 0.983154 1.26113 1.25972 0.768845 1.752C0.276562 2.24428 0 2.91196 0 3.60815V20.2332C0 20.9293 0.276562 21.597 0.768845 22.0893C1.26113 22.5816 1.92881 22.8582 2.625 22.8582H20.125C20.8212 22.8582 21.4889 22.5816 21.9812 22.0893C22.4734 21.597 22.75 20.9293 22.75 20.2332V3.60815C22.75 2.91196 22.4734 2.24428 21.9812 1.752C21.4889 1.25972 20.8212 0.983154 20.125 0.983154ZM4.44062 10.07C4.37471 9.90985 4.35782 9.73372 4.39209 9.56393C4.42635 9.39415 4.51024 9.23835 4.63313 9.11628L7.25813 6.49128C7.42551 6.34793 7.64083 6.27303 7.86105 6.28153C8.08126 6.29004 8.29016 6.38133 8.44599 6.53716C8.60183 6.69299 8.69312 6.90189 8.70162 7.12211C8.71013 7.34232 8.63522 7.55764 8.49187 7.72503L7.36312 8.85815H17.0625C17.2946 8.85815 17.5171 8.95034 17.6812 9.11444C17.8453 9.27853 17.9375 9.50109 17.9375 9.73315C17.9375 9.96522 17.8453 10.1878 17.6812 10.3519C17.5171 10.516 17.2946 10.6082 17.0625 10.6082H5.25C5.077 10.6085 4.90779 10.5576 4.76372 10.4618C4.61966 10.366 4.50723 10.2297 4.44062 10.07ZM18.5544 15.1625L15.9294 17.7875C15.8509 17.8791 15.7544 17.9535 15.6458 18.006C15.5373 18.0586 15.4191 18.0881 15.2985 18.0927C15.178 18.0974 15.0579 18.0771 14.9456 18.0331C14.8333 17.9891 14.7313 17.9224 14.6461 17.8371C14.5608 17.7518 14.4941 17.6498 14.4501 17.5376C14.4061 17.4253 14.3858 17.3051 14.3904 17.1846C14.3951 17.0641 14.4246 16.9459 14.4771 16.8373C14.5296 16.7287 14.604 16.6322 14.6956 16.5538L15.8244 15.4207H6.125C5.89294 15.4207 5.67038 15.3285 5.50628 15.1644C5.34219 15.0003 5.25 14.7777 5.25 14.5457C5.25 14.3136 5.34219 14.091 5.50628 13.9269C5.67038 13.7628 5.89294 13.6707 6.125 13.6707H17.9375C18.1105 13.6703 18.2797 13.7212 18.4238 13.817C18.5678 13.9128 18.6803 14.0491 18.7469 14.2088C18.8128 14.369 18.8297 14.5451 18.7954 14.7149C18.7611 14.8847 18.6773 15.0405 18.5544 15.1625Z" fill="white" fill-opacity="0.5"/>
</svg>
