<svg width="264" height="190" viewBox="0 0 264 190" fill="none" xmlns="http://www.w3.org/2000/svg">
<g clip-path="url(#clip0_1121_12694)">
<path d="M-63.2648 -235.756C-34.1614 -247.054 -3.87013 -253 28.203 -253C60.2762 -253 91.1614 -247.054 120.265 -235.756C149.368 -223.863 174.314 -208.403 195.696 -188.78C216.484 -169.157 233.709 -145.372 246.182 -118.019C258.654 -90.6658 264.594 -62.1235 264.594 -32.392C264.594 -2.66042 258.654 25.8819 246.182 53.2349C233.709 80.5879 217.078 104.373 195.696 123.996C174.908 143.619 149.368 159.674 120.265 170.972C91.1614 182.864 60.8701 188.216 28.797 188.216C-3.27617 188.216 -33.5675 182.27 -62.6709 170.972C-91.7743 159.079 -116.72 143.619 -137.508 123.996C-158.296 104.373 -174.927 80.5879 -187.4 53.2349C-201.061 27.0711 -207 -1.47115 -207 -31.7973C-207 -62.1235 -201.061 -90.0712 -188.588 -117.424C-176.115 -144.777 -159.484 -168.562 -138.696 -188.185C-117.314 -207.808 -92.3682 -223.863 -63.2648 -235.756ZM-39.5069 119.834C-17.5309 128.753 5.03909 132.915 28.797 132.915C52.5549 132.915 75.1248 128.753 97.1009 119.834C118.483 110.914 137.489 99.6161 152.932 84.7503C168.375 69.8846 180.847 52.6403 190.351 32.4228C199.854 12.2054 204.011 -9.20134 204.011 -31.7973C204.011 -54.3933 199.26 -75.2054 190.351 -96.0175C180.847 -116.235 168.375 -134.074 152.932 -148.345C137.489 -163.211 118.483 -174.509 97.1009 -183.428C75.7188 -192.348 52.5549 -196.51 28.797 -196.51C5.03909 -196.51 -17.5309 -192.348 -39.5069 -183.428C-60.889 -174.509 -79.8953 -163.211 -95.338 -148.345C-110.781 -133.479 -123.847 -116.235 -132.757 -96.0175C-142.26 -75.8 -146.417 -54.3933 -146.417 -31.7973C-146.417 -9.20134 -141.666 11.6107 -132.757 32.4228C-123.253 52.6403 -110.781 70.4792 -95.338 84.7503C-79.8953 99.6161 -61.483 111.509 -39.5069 119.834Z" fill="#25DF7E"/>
</g>
<defs>
<clipPath id="clip0_1121_12694">
<rect width="471" height="443" fill="white" transform="translate(-207 -253)"/>
</clipPath>
</defs>
</svg>
