<svg width="24" height="24" viewBox="0 0 24 24" fill="none" xmlns="http://www.w3.org/2000/svg">
<path fill-rule="evenodd" clip-rule="evenodd" d="M8.652 12.5773C8.5852 12.5189 8.43088 12.3833 8.37601 12.332C7.03775 11.0805 6.16102 9.12075 6.16102 6.91219C6.16102 3.05573 8.82789 0 12.0005 0C15.1731 0 17.84 3.05573 17.84 6.91219C17.84 9.11888 16.9648 11.0772 15.6301 12.3307C15.5739 12.3835 15.4166 12.5219 15.3507 12.5797L15.345 12.6755C15.3824 13.2508 15.7708 13.7492 16.3285 13.9252C20.4736 15.2297 23.4787 18.3468 23.9833 22.0412C24.0527 22.5341 23.9042 23.0326 23.576 23.4082C23.2478 23.7837 22.7723 23.9993 22.2724 23.9993C18.614 24 5.38718 24 1.72875 24C1.22849 24 0.752728 23.7843 0.424451 23.4086C0.0961746 23.033 -0.0524426 22.5342 0.0165666 22.0445C0.522383 18.3467 3.52746 15.2297 7.67193 13.9253C8.23154 13.7487 8.62044 13.2482 8.65624 12.6711L8.652 12.5773Z" fill="white" fill-opacity="0.5"/>
</svg>
